<svg version="1.1"  xmlns="http://www.w3.org/2000/svg">
	<symbol id="home" viewBox="0 0 32 32">
		<path d="M 31.460938 14.304688 L 28.757812 11.84375 L 28.757812 3.675781 C 28.757812 3.15625 28.339844 2.734375 27.816406 2.734375 L 21.3125 2.734375 C 20.792969 2.734375 20.371094 3.15625 20.371094 3.675781 L 20.371094 4.199219 L 17.105469 1.222656 C 16.476562 0.648438 15.523438 0.648438 14.894531 1.222656 L 0.539062 14.304688 C 0.03125 14.765625 -0.132812 15.472656 0.113281 16.109375 C 0.359375 16.746094 0.960938 17.160156 1.644531 17.160156 L 3.9375 17.160156 L 3.9375 30.265625 C 3.9375 30.785156 4.355469 31.207031 4.875 31.207031 L 12.746094 31.207031 C 13.265625 31.207031 13.6875 30.785156 13.6875 30.265625 L 13.6875 22.308594 L 18.3125 22.308594 L 18.3125 30.265625 C 18.3125 30.785156 18.734375 31.207031 19.253906 31.207031 L 27.121094 31.207031 C 27.640625 31.207031 28.0625 30.785156 28.0625 30.265625 L 28.0625 17.160156 L 30.355469 17.160156 C 31.039062 17.160156 31.640625 16.746094 31.886719 16.109375 C 32.132812 15.472656 31.96875 14.765625 31.460938 14.304688 Z M 27.121094 15.277344 C 26.601562 15.277344 26.183594 15.699219 26.183594 16.21875 L 26.183594 29.324219 L 20.195312 29.324219 L 20.195312 21.367188 C 20.195312 20.847656 19.773438 20.425781 19.253906 20.425781 L 12.746094 20.425781 C 12.226562 20.425781 11.804688 20.847656 11.804688 21.367188 L 11.804688 29.324219 L 5.816406 29.324219 L 5.816406 16.21875 C 5.816406 15.699219 5.398438 15.277344 4.875 15.277344 L 2.265625 15.277344 L 16 2.761719 L 20.675781 7.023438 C 20.953125 7.273438 21.351562 7.339844 21.691406 7.1875 C 22.03125 7.039062 22.253906 6.699219 22.253906 6.328125 L 22.253906 4.617188 L 26.878906 4.617188 L 26.878906 12.257812 C 26.878906 12.523438 26.988281 12.773438 27.183594 12.953125 L 29.734375 15.277344 Z M 27.121094 15.277344 "/>
	</symbol>
	<symbol id="symbol-i" viewBox="0 0 32 32">
		<path d="M15.060 12.567h1.88c0.339 0 0.613 0.274 0.613 0.613v7.52c0 0.339-0.274 0.613-0.613 0.613h-1.88c-0.339 0-0.613-0.274-0.613-0.613v-7.52c0-0.339 0.274-0.613 0.613-0.613z"></path>
		<path d="M15.060 8.807h1.88c0.339 0 0.613 0.274 0.613 0.613v1.88c0 0.339-0.274 0.613-0.613 0.613h-1.88c-0.339 0-0.613-0.274-0.613-0.613v-1.88c0-0.339 0.274-0.613 0.613-0.613z"></path>
		<path opacity="0.7" d="M16 32c-8.837 0-16-7.163-16-16s7.163-16 16-16c8.837 0 16 7.163 16 16v0c-0.012 8.832-7.168 15.988-15.999 16h-0.001zM16 3.065c-7.144 0-12.935 5.791-12.935 12.935s5.791 12.935 12.935 12.935c7.144 0 12.935-5.791 12.935-12.935v0c-0.012-7.139-5.796-12.923-12.934-12.935h-0.001z"></path>
	</symbol>
	<symbol id="symbol-query" viewBox="0 0 32 32">
		<path d="M14.794 19.78c-0.277 0.258-0.45 0.625-0.45 1.032 0 0.003 0 0.007 0 0.010v-0.001c-0 0.006-0 0.013-0 0.020 0 0.39 0.156 0.743 0.409 1.001l-0-0c0.264 0.254 0.623 0.41 1.019 0.41 0.023 0 0.045-0 0.067-0.002l-0.003 0c0.023 0.001 0.049 0.002 0.076 0.002 0.399 0 0.761-0.156 1.028-0.411l-0.001 0.001c0.265-0.25 0.429-0.604 0.429-0.996 0-0.009-0-0.018-0-0.027l0 0.001c0-0.010 0-0.023 0-0.035 0-0.389-0.165-0.74-0.429-0.986l-0.001-0.001c-0.289-0.252-0.669-0.405-1.085-0.405-0.405 0-0.776 0.145-1.063 0.387l0.003-0.002z"></path>
		<path d="M18.493 10.544c-0.622-0.499-1.422-0.801-2.292-0.801-0.064 0-0.127 0.002-0.189 0.005l0.009-0c-0.048-0.002-0.105-0.004-0.161-0.004-0.869 0-1.668 0.302-2.298 0.806l0.007-0.006c-0.615 0.517-1.002 1.287-1.002 2.147 0 0.028 0 0.057 0.001 0.085l-0-0.004c-0 0.004-0 0.008-0 0.012 0 0.161 0.062 0.308 0.164 0.417l-0-0c0.114 0.114 0.272 0.184 0.446 0.184 0.001 0 0.002 0 0.003 0h1.594c0.339 0 0.613-0.274 0.613-0.613v0c-0.001-0.012-0.002-0.027-0.002-0.041 0-0.126 0.047-0.24 0.125-0.327l-0 0c0.138-0.091 0.308-0.146 0.49-0.146s0.352 0.054 0.494 0.148l-0.003-0.002c0.078 0.119 0.124 0.265 0.124 0.421 0 0.017-0.001 0.034-0.002 0.051l0-0.002c-0.004 0.191-0.065 0.368-0.166 0.514l0.002-0.003c-0.218 0.272-0.452 0.513-0.708 0.729l-0.008 0.006c-0.407 0.364-0.742 0.797-0.99 1.283l-0.011 0.025c-0.17 0.423-0.269 0.914-0.269 1.428 0 0.058 0.001 0.116 0.004 0.174l-0-0.008c0 0.339 0.274 0.613 0.613 0.613v0h1.492c0.339 0 0.613-0.274 0.613-0.613v0c-0.003-0.035-0.005-0.076-0.005-0.117 0-0.316 0.101-0.609 0.273-0.848l-0.003 0.004 0.797-0.756c0.695-0.609 1.143-1.485 1.185-2.465l0-0.007c0.002-0.044 0.004-0.095 0.004-0.147 0-0.847-0.363-1.609-0.942-2.14l-0.002-0.002z"></path>
		<path opacity="0.7" d="M16 32c-8.837 0-16-7.163-16-16s7.163-16 16-16c8.837 0 16 7.163 16 16v0c-0.012 8.832-7.168 15.988-15.999 16h-0.001zM16 3.065c-7.144 0-12.935 5.791-12.935 12.935s5.791 12.935 12.935 12.935c7.144 0 12.935-5.791 12.935-12.935v0c-0.012-7.139-5.796-12.923-12.934-12.935h-0.001z"></path>
	</symbol>
	<symbol id="card-suit" viewBox="0 0 32 32">
		<path d="M16.020 11.3v0s5.068 3.147 4.659 5.517c-0.054 1.255-1.085 2.251-2.348 2.251-0.044 0-0.087-0.001-0.131-0.004l0.006 0c-0.002 0-0.005 0-0.008 0-0.625 0-1.199-0.216-1.652-0.576l0.005 0.004s0 0 0 0c0.613 0.94 1.468 1.677 2.477 2.131l0.036 0.015h-6.049c1.039-0.453 1.893-1.169 2.501-2.064l0.013-0.020s0 0-0.123 0c-0.442 0.343-1.004 0.55-1.614 0.552h-0c-0.037 0.002-0.080 0.003-0.124 0.003-1.27 0-2.305-1.008-2.349-2.268l-0-0.004c-0.409-2.37 4.659-5.538 4.659-5.538v0z"></path>
		<path opacity="0.7" d="M16 32c-8.837 0-16-7.163-16-16s7.163-16 16-16c8.837 0 16 7.163 16 16v0c-0.012 8.832-7.168 15.988-15.999 16h-0.001zM16 3.065c-7.144 0-12.935 5.791-12.935 12.935s5.791 12.935 12.935 12.935c7.144 0 12.935-5.791 12.935-12.935v0c-0.012-7.139-5.796-12.923-12.934-12.935h-0.001z"></path>
	</symbol>
	<symbol id="time-back" viewBox="0 0 36 32">
		<path opacity="0.7" d="M19.29 0c-0.033-0-0.071-0-0.11-0-7.194 0-13.303 4.647-15.488 11.104l-0.034 0.115-0.879-1.614c-0.273-0.508-0.801-0.847-1.408-0.847-0.23 0-0.448 0.049-0.645 0.136l0.010-0.004c-0.487 0.284-0.809 0.804-0.809 1.399 0 0.172 0.027 0.337 0.076 0.492l-0.003-0.011 3.065 5.824 0.163 0.143c0.143 0.163 0.143 0.306 0.286 0.306l0.143 0.143c0.163 0 0.306 0.143 0.45 0.143h0.45c0.011 0 0.024 0 0.037 0 0.395 0 0.751-0.165 1.004-0.429l0-0 4.455-4.373c0.276-0.255 0.448-0.618 0.448-1.022s-0.172-0.767-0.447-1.021l-0.001-0.001c-0.264-0.255-0.625-0.413-1.022-0.413s-0.757 0.157-1.022 0.413l0-0-1.328 1.308c1.916-5.227 6.848-8.889 12.636-8.889 1.548 0 3.035 0.262 4.419 0.744l-0.094-0.029c5.262 1.743 8.99 6.618 8.99 12.363 0 1.522-0.262 2.983-0.743 4.341l0.028-0.091c-1.909 5.226-6.837 8.889-12.621 8.889-1.546 0-3.031-0.262-4.413-0.743l0.094 0.029c-1.974-0.678-3.667-1.726-5.073-3.070l0.005 0.005c-0.286-0.277-0.677-0.447-1.107-0.447-0.352 0-0.677 0.114-0.941 0.307l0.004-0.003c-0.292 0.276-0.474 0.667-0.474 1.099 0 0.358 0.125 0.688 0.333 0.947l-0.002-0.003 0.143 0.163c2.99 2.856 7.051 4.614 11.522 4.614 4.554 0 8.682-1.823 11.694-4.78l-0.003 0.003c2.916-2.874 4.723-6.867 4.723-11.282 0-4.485-1.864-8.534-4.86-11.416l-0.005-0.005c-3.021-2.811-7.086-4.537-11.554-4.537-0.033 0-0.066 0-0.099 0l0.005-0z"></path>
		<path d="M22.927 22.478c-0.005 0-0.010 0-0.015 0-0.345 0-0.651-0.168-0.841-0.426l-0.002-0.003-3.678-4.291c-0.229-0.25-0.369-0.584-0.369-0.951 0-0.018 0-0.035 0.001-0.053l-0 0.003v-7.152c-0.013-0.068-0.020-0.145-0.020-0.225 0-0.688 0.558-1.246 1.247-1.246s1.247 0.558 1.247 1.246c0 0.079-0.007 0.157-0.022 0.233l0.001-0.008v6.58l3.31 3.862c0.238 0.272 0.383 0.63 0.383 1.022s-0.145 0.75-0.385 1.023l0.002-0.002c-0.193 0.238-0.485 0.389-0.812 0.389-0.016 0-0.032-0-0.048-0.001l0.002 0z"></path>
	</symbol>
	<symbol id="notepad" viewBox="0 0 32 32">
		<path opacity="0.7" d="M30.651 2.902h-5.926v-1.451c0-0.801-0.65-1.451-1.451-1.451s-1.451 0.65-1.451 1.451v0 1.451h-11.607v-1.451c0.002-0.026 0.003-0.057 0.003-0.087 0-0.756-0.613-1.369-1.369-1.369-0.044 0-0.088 0.002-0.131 0.006l0.005-0c-0.025-0.002-0.055-0.003-0.084-0.003-0.756 0-1.369 0.613-1.369 1.369 0 0.030 0.001 0.059 0.003 0.088l-0-0.004v1.451h-5.824c-0.026-0.002-0.056-0.003-0.086-0.003-0.756 0-1.369 0.613-1.369 1.369 0 0.037 0.001 0.073 0.004 0.11l-0-0.005v26.278c-0.002 0.025-0.003 0.055-0.003 0.084 0 0.756 0.613 1.369 1.369 1.369 0.030 0 0.059-0.001 0.088-0.003l-0.004 0h20.23c5.692-0.035 10.296-4.646 10.319-10.337v-17.392c0.002-0.025 0.002-0.053 0.002-0.082 0-0.754-0.6-1.368-1.349-1.389l-0.002-0zM29.18 21.66c0 0 0 0 0 0 0 4.089-3.309 7.406-7.396 7.418h-18.882v-23.254h4.373v1.451c-0.002 0.025-0.003 0.055-0.003 0.084 0 0.756 0.613 1.369 1.369 1.369 0.030 0 0.059-0.001 0.088-0.003l-0.004 0c0.038 0.004 0.081 0.006 0.125 0.006 0.756 0 1.369-0.613 1.369-1.369 0-0.031-0.001-0.061-0.003-0.092l0 0.004v-1.451h11.648v1.451c0 0.801 0.65 1.451 1.451 1.451s1.451-0.65 1.451-1.451v0-1.451h4.352z"></path>
		<path d="M23.275 13.098h-14.549c-0.025-0.002-0.055-0.003-0.084-0.003-0.756 0-1.369 0.613-1.369 1.369 0 0.030 0.001 0.059 0.003 0.088l-0-0.004c-0.002 0.025-0.003 0.055-0.003 0.084 0 0.756 0.613 1.369 1.369 1.369 0.030 0 0.059-0.001 0.088-0.003l-0.004 0h14.549c0.019 0.001 0.041 0.001 0.063 0.001 0.767 0 1.39-0.622 1.39-1.39 0-0.022-0-0.044-0.002-0.066l0 0.003c0.002-0.025 0.003-0.055 0.003-0.084 0-0.756-0.613-1.369-1.369-1.369-0.030 0-0.059 0.001-0.088 0.003l0.004-0z"></path>
		<path d="M17.451 21.824h-8.725c-0.801 0-1.451 0.65-1.451 1.451s0.65 1.451 1.451 1.451v0h8.725c0.801 0 1.451-0.65 1.451-1.451s-0.65-1.451-1.451-1.451v0z"></path>
	</symbol>
	<symbol id="settings" viewBox="0 0 32 32">
		<path d="M30.908 24.878c-0-0-0-0-0-0l-0.001 0.001-6.779-6.779c-0.208-0.208-0.545-0.208-0.753 0l-1.508 1.509-1.883-1.883 1.941-1.939c2.674 0.6 5.47-0.207 7.413-2.14 2.171-2.187 2.9-5.423 1.877-8.331-0.061-0.172-0.206-0.301-0.384-0.341s-0.364 0.014-0.494 0.142l-3.782 3.778-2.823-0.941-0.941-2.823 3.778-3.781c0.208-0.208 0.207-0.545-0.001-0.753-0.056-0.056-0.124-0.099-0.198-0.125-4.156-1.481-8.726 0.688-10.207 4.845-0.508 1.425-0.6 2.966-0.267 4.442l-1.939 1.941-6.789-6.794-0.213-2.296c-0.018-0.19-0.136-0.357-0.31-0.436l-4.143-1.88c-0.202-0.092-0.439-0.050-0.597 0.107l-1.502 1.502c-0.156 0.157-0.199 0.395-0.107 0.597l1.88 4.144c0.079 0.174 0.246 0.293 0.436 0.311l2.296 0.213 6.792 6.789-10.612 10.611c-1.453 1.457-1.453 3.816 0 5.273l0.751 0.751c1.457 1.453 3.815 1.453 5.273 0l10.615-10.609 1.883 1.883-1.509 1.509c-0.208 0.208-0.208 0.545 0 0.753l6.779 6.778c1.457 1.454 3.816 1.454 5.273 0l0.753-0.753c1.456-1.456 1.456-3.817 0-5.273zM5.525 6.276c-0.088-0.088-0.204-0.142-0.328-0.154l-2.179-0.2-1.598-3.526 0.98-0.981 3.526 1.598 0.201 2.179c0.011 0.124 0.066 0.24 0.153 0.328l6.924 6.93-0.749 0.749-6.93-6.923zM6.363 29.838c-1.041 1.039-2.727 1.039-3.769 0l-0.751-0.751c-1.039-1.041-1.039-2.727 0-3.769l15.020-15.020c0.135-0.135 0.187-0.331 0.138-0.514-0.979-3.703 1.228-7.499 4.932-8.479 1.060-0.28 2.172-0.305 3.243-0.073l-3.371 3.376c-0.143 0.143-0.192 0.354-0.128 0.545l1.129 3.387c0.053 0.159 0.178 0.284 0.337 0.337l3.387 1.129c0.191 0.064 0.402 0.014 0.544-0.128l3.376-3.371c0.822 3.733-1.537 7.425-5.269 8.248-1.084 0.239-2.21 0.213-3.283-0.074-0.184-0.050-0.38 0.003-0.514 0.138l-15.021 15.020zM18.482 19.227l0.749-0.749 1.885 1.883-0.751 0.751-1.883-1.885zM30.154 29.398v0.002l-0.753 0.751c-1.041 1.038-2.725 1.038-3.766 0l-6.402-6.402 4.519-4.52 6.402 6.402c1.040 1.040 1.040 2.726 0 3.766z"></path>
	</symbol>
	<symbol id="timer" viewBox="0 0 32 32">
		<path d="M19.734 24c-0.48 0-0.8-0.16-1.12-0.48l-4.8-4.8c-0.32-0.32-0.48-0.64-0.48-1.12v-8c0-0.96 0.64-1.6 1.6-1.6s1.6 0.64 1.6 1.6v7.36l4.32 4.32c0.64 0.64 0.64 1.6 0 2.24-0.32 0.32-0.64 0.48-1.12 0.48z"></path>
		<path d="M16 32c-8.873 0-16-7.127-16-16s7.127-16 16-16c8.873 0 16 7.127 16 16s-7.127 16-16 16zM16 2.909c-7.273 0-13.091 5.818-13.091 13.091s5.818 13.091 13.091 13.091c7.273 0 13.091-5.818 13.091-13.091s-5.818-13.091-13.091-13.091z"></path>
	</symbol>
	<symbol id="coupon" viewBox="0 0 27 32">
		<path d="M19.276 14.171h-11.078c-0.001 0-0.003 0-0.004 0-0.32 0-0.579 0.259-0.579 0.579 0 0.161 0.066 0.306 0.172 0.411l0 0c0.105 0.107 0.25 0.176 0.41 0.183l0.001 0h11.078c0.162-0.007 0.306-0.075 0.411-0.183l0-0c0.106-0.105 0.172-0.251 0.172-0.411 0-0.32-0.259-0.579-0.579-0.579-0.001 0-0.003 0-0.004 0h0z"></path>
		<path d="M8.198 11.84h5.821c0.001 0 0.002 0 0.003 0 0.162 0 0.308-0.070 0.408-0.182l0-0.001c0.106-0.105 0.172-0.251 0.172-0.411 0-0.32-0.259-0.579-0.579-0.579-0.001 0-0.003 0-0.004 0h-5.821c-0.001 0-0.003 0-0.004 0-0.32 0-0.579 0.259-0.579 0.579 0 0.161 0.066 0.306 0.172 0.411l0 0c0.101 0.112 0.247 0.183 0.409 0.183 0.001 0 0.002 0 0.003 0h-0z"></path>
		<path d="M19.276 17.676h-11.078c-0.32 0-0.579 0.259-0.579 0.579s0.259 0.579 0.579 0.579h11.078c0.32 0 0.579-0.259 0.579-0.579s-0.259-0.579-0.579-0.579v0z"></path>
		<path d="M19.81 0h-12.19c-4.208 0-7.619 3.411-7.619 7.619v0 18.286c0 3.366 2.729 6.095 6.095 6.095v0c1.425-0.070 2.732-0.52 3.838-1.252l-0.028 0.018c0.756-0.489 1.654-0.996 2.582-1.452l0.161-0.072c0.323-0.145 0.7-0.229 1.097-0.229s0.774 0.084 1.115 0.236l-0.017-0.007c1.089 0.528 1.987 1.035 2.852 1.59l-0.11-0.066c1.060 0.704 2.345 1.153 3.728 1.233l0.020 0.001c3.366 0 6.095-2.729 6.095-6.095v0-18.286c0-4.208-3.411-7.619-7.619-7.619v0zM25.905 25.905c0 2.525-2.047 4.571-4.571 4.571v0c-2.149 0-3.977-1.844-5.943-2.697-0.503-0.222-1.090-0.351-1.707-0.351s-1.203 0.129-1.735 0.362l0.028-0.011c-1.935 0.853-3.764 2.697-5.882 2.697-2.525 0-4.571-2.047-4.571-4.571v0-18.286c0-3.366 2.729-6.095 6.095-6.095v0h12.19c3.366 0 6.095 2.729 6.095 6.095v0z"></path>
	</symbol>
	<symbol id="line-arrow-right" viewBox="0 0 18 32">
		<path d="M0.751 31.249c-0.461-0.458-0.746-1.092-0.746-1.793s0.285-1.335 0.746-1.793l0-0 9.153-9.255c0.594-0.614 0.96-1.451 0.96-2.374s-0.366-1.76-0.961-2.374l0.001 0.001-9.153-9.323c-0.412-0.448-0.664-1.048-0.664-1.708s0.252-1.259 0.666-1.709l-0.002 0.002c0.463-0.463 1.103-0.749 1.81-0.749s1.347 0.286 1.81 0.749l-0-0 12.704 12.739c0.594 0.614 0.96 1.451 0.96 2.374s-0.366 1.76-0.961 2.374l0.001-0.001-12.704 12.841c-0.46 0.471-1.101 0.764-1.81 0.764s-1.351-0.292-1.81-0.763l-0-0.001z"></path>
	</symbol>
	<symbol id="line-arrow-left" viewBox="0 0 18 32">
		<path d="M13.661 31.249l-12.67-12.841c-0.594-0.614-0.96-1.451-0.96-2.374s0.366-1.76 0.961-2.374l-0.001 0.001 12.67-12.909c0.463-0.463 1.103-0.749 1.81-0.749s1.347 0.286 1.81 0.749l-0-0c0.461 0.458 0.746 1.092 0.746 1.793s-0.285 1.335-0.746 1.793l-0 0-9.118 9.323c-0.614 0.617-0.993 1.468-0.993 2.408s0.379 1.79 0.993 2.408l-0-0 9.153 9.187c0.417 0.454 0.673 1.063 0.673 1.731 0 1.415-1.147 2.561-2.561 2.561-0.685 0-1.308-0.269-1.767-0.707l0.001 0.001z"></path>
	</symbol>
	<symbol id="btn-trapeze-right" viewBox="0 0 12 32">
		<path d="M0.048 9.791c0-3.102 1.881-5.876 4.712-6.945l7.521-2.844v32.005l-7.068-2.138c-3.063-0.926-5.165-3.817-5.165-7.1v-12.979z"></path>
	</symbol>
	<symbol id="arrow-triangle-right" viewBox="0 0 23 32">
		<path d="M21.012 12.821c1.985 1.654 1.985 4.703 0 6.357l-14.225 11.855c-2.695 2.246-6.787 0.329-6.787-3.179v-23.709c0-3.508 4.092-5.425 6.787-3.179l14.225 11.854z"></path>
	</symbol>
    <symbol id="star" viewBox="0 0 34 32">
        <path d="M15.117 1.593c0.855-1.637 3.197-1.637 4.052 0l3.352 6.417c0.331 0.634 0.94 1.077 1.646 1.196l7.139 1.205c1.821 0.307 2.545 2.535 1.252 3.854l-5.067 5.171c-0.501 0.511-0.733 1.227-0.629 1.935l1.060 7.162c0.27 1.827-1.624 3.203-3.278 2.382l-6.484-3.221c-0.641-0.318-1.393-0.318-2.034 0l-6.484 3.221c-1.654 0.822-3.549-0.555-3.278-2.382l1.060-7.162c0.105-0.708-0.128-1.424-0.629-1.935l-5.067-5.171c-1.292-1.319-0.569-3.546 1.252-3.854l7.139-1.205c0.705-0.119 1.314-0.562 1.646-1.196l3.352-6.417z"></path>
    </symbol>
	<symbol id="exit" viewBox="0 0 32 32">
		<path stroke-linejoin="miter" stroke-linecap="round" stroke-miterlimit="4" stroke-width="1.5238" d="M10.667 21.442l10.775-10.775"></path>
		<path stroke-linejoin="miter" stroke-linecap="round" stroke-miterlimit="4" stroke-width="1.5238" d="M21.442 21.442l-10.775-10.775"></path>
		<path stroke-linejoin="miter" stroke-linecap="butt" stroke-miterlimit="4" stroke-width="1.5238" d="M16 0.762c8.416 0 15.238 6.822 15.238 15.238s-6.822 15.238-15.238 15.238c-8.416 0-15.238-6.822-15.238-15.238s6.822-15.238 15.238-15.238z"></path>
	</symbol>
	<symbol id="check-mark" viewBox="0 0 39 32">
		<path stroke-linejoin="miter" stroke-linecap="round" stroke-miterlimit="4" stroke-width="6.4" d="M3.406 14.4l12.8 9.6 19.2-16"></path>
	</symbol>
	<symbol id="cross" viewBox="0 0 32 32">
		<path d="M18.932 16.026l12.46-12.461c0.811-0.811 0.811-2.121 0-2.932s-2.121-0.81-2.931 0l-12.461 12.461-12.46-12.461c-0.811-0.81-2.121-0.81-2.932 0s-0.811 2.121 0 2.932l12.46 12.461-12.46 12.461c-0.811 0.811-0.811 2.121 0 2.931 0.404 0.404 0.935 0.607 1.466 0.607s1.061-0.203 1.466-0.607l12.46-12.461 12.461 12.461c0.404 0.404 0.935 0.607 1.466 0.607s1.061-0.203 1.466-0.607c0.811-0.811 0.811-2.121 0-2.931z"></path>
	</symbol>
	<symbol id="calendar" viewBox="0 0 32 32">
		<path d="M10 12h4v4h-4zM16 12h4v4h-4zM22 12h4v4h-4zM4 24h4v4h-4zM10 24h4v4h-4zM16 24h4v4h-4zM10 18h4v4h-4zM16 18h4v4h-4zM22 18h4v4h-4zM4 18h4v4h-4zM26 0v2h-4v-2h-14v2h-4v-2h-4v32h30v-32h-4zM28 30h-26v-22h26v22z"></path>
	</symbol>
	<symbol id="line-arrow-down" viewBox="0 0 32 18">
		<path d="M31.292 4.373l-12.86 12.689c-0.615 0.595-1.453 0.961-2.377 0.961s-1.762-0.367-2.377-0.963l0.001 0.001-12.928-12.689c-0.464-0.464-0.75-1.104-0.75-1.813s0.287-1.349 0.75-1.813v0c0.459-0.462 1.093-0.747 1.796-0.747s1.337 0.286 1.796 0.747v0l9.337 9.132c0.618 0.615 1.47 0.994 2.411 0.994s1.793-0.38 2.411-0.994v0l9.201-9.167c0.455-0.417 1.065-0.674 1.734-0.674 1.417 0 2.565 1.148 2.565 2.565 0 0.686-0.27 1.31-0.708 1.77l0.001-0.001z"></path>
	</symbol>
	<symbol id="game-cube-1" viewBox="0 0 32 32">
		<path  d="M1.822 0h28.356c1.006 0 1.822 0.816 1.822 1.822v28.356c0 1.006-0.816 1.822-1.822 1.822h-28.356c-1.006 0-1.822-0.816-1.822-1.822v-28.356c0-1.006 0.816-1.822 1.822-1.822z"></path>
		<path  d="M1.822 0.366h28.356c0.804 0 1.457 0.652 1.457 1.457v28.356c0 0.804-0.652 1.457-1.457 1.457h-28.356c-0.804 0-1.457-0.652-1.457-1.457v-28.356c0-0.804 0.652-1.457 1.457-1.457z"></path>
		<path d="M18.826 16.566c0 1.554-1.259 2.813-2.813 2.813s-2.813-1.259-2.813-2.813c0-1.554 1.259-2.813 2.813-2.813v0c1.554 0 2.813 1.259 2.813 2.813v0z"></path>
		<path fill="#222947" d="M18.622 16.566c0 1.448-1.174 2.622-2.622 2.622s-2.622-1.174-2.622-2.622c0-1.448 1.174-2.622 2.622-2.622v0c1.448 0 2.622 1.174 2.622 2.622v0z"></path>
	</symbol>
	<symbol id="game-cube-2" viewBox="0 0 32 32">
		<path  d="M1.822 0h28.356c1.006 0 1.822 0.816 1.822 1.822v28.356c0 1.006-0.816 1.822-1.822 1.822h-28.356c-1.006 0-1.822-0.816-1.822-1.822v-28.356c0-1.006 0.816-1.822 1.822-1.822z"></path>
		<path  d="M1.822 0.366h28.356c0.804 0 1.457 0.652 1.457 1.457v28.356c0 0.804-0.652 1.457-1.457 1.457h-28.356c-0.804 0-1.457-0.652-1.457-1.457v-28.356c0-0.804 0.652-1.457 1.457-1.457z"></path>
		<path d="M10.19 7.923c0 1.56-1.265 2.826-2.826 2.826s-2.826-1.265-2.826-2.826c0-1.561 1.265-2.826 2.826-2.826s2.826 1.265 2.826 2.826z"></path>
		<path fill="#222947" d="M7.964 5.37c1.41 0.331 2.284 1.743 1.953 3.153s-1.743 2.284-3.153 1.953c-1.41-0.331-2.284-1.743-1.953-3.153s1.743-2.284 3.153-1.953z"></path>
		<path d="M27.459 25.196c0 1.554-1.259 2.813-2.813 2.813s-2.813-1.259-2.813-2.813c0-1.554 1.259-2.813 2.813-2.813v0c1.554 0 2.813 1.259 2.813 2.813v0z"></path>
		<path fill="#222947" d="M26.488 23.34c1.024 1.024 1.024 2.684 0 3.709s-2.684 1.024-3.709 0c-1.024-1.024-1.024-2.684 0-3.709s2.684-1.024 3.709 0z"></path>
	</symbol>
	<symbol id="game-cube-3" viewBox="0 0 32 32">
		<path  d="M1.822 0h28.356c1.006 0 1.822 0.816 1.822 1.822v28.356c0 1.006-0.816 1.822-1.822 1.822h-28.356c-1.006 0-1.822-0.816-1.822-1.822v-28.356c0-1.006 0.816-1.822 1.822-1.822z"></path>
		<path  d="M1.822 0.366h28.356c0.804 0 1.457 0.652 1.457 1.457v28.356c0 0.804-0.652 1.457-1.457 1.457h-28.356c-0.804 0-1.457-0.652-1.457-1.457v-28.356c0-0.804 0.652-1.457 1.457-1.457z"></path>
		<path d="M10.19 7.923c0 1.56-1.265 2.826-2.826 2.826s-2.826-1.265-2.826-2.826c0-1.561 1.265-2.826 2.826-2.826s2.826 1.265 2.826 2.826z"></path>
		<path fill="#222947" d="M7.964 5.37c1.41 0.331 2.284 1.743 1.953 3.153s-1.743 2.284-3.153 1.953c-1.41-0.331-2.284-1.743-1.953-3.153s1.743-2.284 3.153-1.953z"></path>
		<path d="M18.826 16.566c0 1.554-1.259 2.813-2.813 2.813s-2.813-1.259-2.813-2.813c0-1.554 1.259-2.813 2.813-2.813v0c1.554 0 2.813 1.259 2.813 2.813v0z"></path>
		<path fill="#222947" d="M18.622 16.566c0 1.448-1.174 2.622-2.622 2.622s-2.622-1.174-2.622-2.622c0-1.448 1.174-2.622 2.622-2.622v0c1.448 0 2.622 1.174 2.622 2.622v0z"></path>
		<path d="M27.459 25.196c0 1.554-1.259 2.813-2.813 2.813s-2.813-1.259-2.813-2.813c0-1.554 1.259-2.813 2.813-2.813v0c1.554 0 2.813 1.259 2.813 2.813v0z"></path>
		<path fill="#222947" d="M25.233 22.64c1.41 0.331 2.284 1.743 1.953 3.153s-1.743 2.284-3.153 1.953c-1.41-0.331-2.284-1.743-1.953-3.153s1.743-2.284 3.153-1.953z"></path>
	</symbol>
	<symbol id="game-cube-4" viewBox="0 0 32 32">
		<path  d="M1.822 0h28.356c1.006 0 1.822 0.816 1.822 1.822v28.356c0 1.006-0.816 1.822-1.822 1.822h-28.356c-1.006 0-1.822-0.816-1.822-1.822v-28.356c0-1.006 0.816-1.822 1.822-1.822z"></path>
		<path  d="M1.822 0.366h28.356c0.804 0 1.457 0.652 1.457 1.457v28.356c0 0.804-0.652 1.457-1.457 1.457h-28.356c-0.804 0-1.457-0.652-1.457-1.457v-28.356c0-0.804 0.652-1.457 1.457-1.457z"></path>
		<path d="M7.839 5.141c1.538 0.262 2.573 1.722 2.31 3.26s-1.722 2.573-3.26 2.31c-1.538-0.262-2.573-1.722-2.31-3.26s1.722-2.573 3.26-2.31z"></path>
		<path fill="#222947" d="M9.217 6.071c1.024 1.024 1.024 2.684 0 3.709s-2.684 1.024-3.709 0c-1.024-1.024-1.024-2.684 0-3.709s2.684-1.024 3.709 0z"></path>
		<path d="M27.459 7.923c0 1.554-1.259 2.813-2.813 2.813s-2.813-1.259-2.813-2.813c0-1.554 1.259-2.813 2.813-2.813v0c1.554 0 2.813 1.259 2.813 2.813v0z"></path>
		<path fill="#222947" d="M26.49 6.069c1.024 1.024 1.024 2.684 0 3.709s-2.684 1.024-3.709 0c-1.024-1.024-1.024-2.684 0-3.709s2.684-1.024 3.709 0z"></path>
		<path d="M10.19 25.196c0 1.554-1.259 2.813-2.813 2.813s-2.813-1.259-2.813-2.813c0-1.554 1.259-2.813 2.813-2.813v0c1.554 0 2.813 1.259 2.813 2.813v0z"></path>
		<path fill="#222947" d="M7.969 22.644c1.409 0.334 2.281 1.747 1.947 3.156s-1.747 2.281-3.156 1.947c-1.409-0.334-2.281-1.747-1.947-3.156s1.747-2.281 3.156-1.947z"></path>
		<path d="M27.459 25.196c0 1.554-1.259 2.813-2.813 2.813s-2.813-1.259-2.813-2.813c0-1.554 1.259-2.813 2.813-2.813v0c1.554 0 2.813 1.259 2.813 2.813v0z"></path>
		<path fill="#222947" d="M25.241 22.643c1.409 0.334 2.281 1.747 1.947 3.156s-1.747 2.281-3.156 1.947c-1.409-0.334-2.281-1.747-1.947-3.156s1.747-2.281 3.156-1.947z"></path>
	</symbol>
	<symbol id="game-cube-5" viewBox="0 0 32 32">
		<path  d="M1.822 0h28.356c1.006 0 1.822 0.816 1.822 1.822v28.356c0 1.006-0.816 1.822-1.822 1.822h-28.356c-1.006 0-1.822-0.816-1.822-1.822v-28.356c0-1.006 0.816-1.822 1.822-1.822z"></path>
		<path  d="M1.822 0.366h28.356c0.804 0 1.457 0.652 1.457 1.457v28.356c0 0.804-0.652 1.457-1.457 1.457h-28.356c-0.804 0-1.457-0.652-1.457-1.457v-28.356c0-0.804 0.652-1.457 1.457-1.457z"></path>
		<path d="M10.19 7.923c0 1.554-1.259 2.813-2.813 2.813s-2.813-1.259-2.813-2.813c0-1.554 1.259-2.813 2.813-2.813v0c1.554 0 2.813 1.259 2.813 2.813v0z"></path>
		<path fill="#222947" d="M10.002 7.923c0 0.004 0 0.008 0 0.012 0 1.448-1.174 2.622-2.622 2.622s-2.622-1.174-2.622-2.622c0-1.443 1.165-2.613 2.606-2.622h0.001c0.005-0 0.010-0 0.016-0 1.444 0 2.615 1.167 2.622 2.609v0.001z"></path>
		<path d="M27.459 7.923c0 1.554-1.259 2.813-2.813 2.813s-2.813-1.259-2.813-2.813c0-1.554 1.259-2.813 2.813-2.813v0c1.554 0 2.813 1.259 2.813 2.813v0z"></path>
		<path fill="#222947" d="M27.056 6.916c0.557 1.337-0.075 2.872-1.412 3.429s-2.872-0.075-3.429-1.412c-0.557-1.337 0.075-2.872 1.412-3.429s2.872 0.075 3.429 1.412z"></path>
		<path d="M18.826 16.566c0 1.554-1.259 2.813-2.813 2.813s-2.813-1.259-2.813-2.813c0-1.554 1.259-2.813 2.813-2.813v0c1.554 0 2.813 1.259 2.813 2.813v0z"></path>
		<path fill="#222947" d="M18.622 16.566c0 1.448-1.174 2.622-2.622 2.622s-2.622-1.174-2.622-2.622c0-1.448 1.174-2.622 2.622-2.622v0c1.448 0 2.622 1.174 2.622 2.622v0z"></path>
		<path d="M10.19 25.196c0 1.554-1.259 2.813-2.813 2.813s-2.813-1.259-2.813-2.813c0-1.554 1.259-2.813 2.813-2.813v0c1.554 0 2.813 1.259 2.813 2.813v0z"></path>
		<path fill="#222947" d="M10.002 25.196c0 1.448-1.174 2.622-2.622 2.622s-2.622-1.174-2.622-2.622c0-1.448 1.174-2.622 2.622-2.622v0c1.448 0 2.622 1.174 2.622 2.622v0z"></path>
		<path d="M27.459 25.196c0 1.554-1.259 2.813-2.813 2.813s-2.813-1.259-2.813-2.813c0-1.554 1.259-2.813 2.813-2.813v0c1.554 0 2.813 1.259 2.813 2.813v0z"></path>
		<path fill="#222947" d="M25.057 22.606c1.43 0.233 2.4 1.58 2.167 3.009s-1.58 2.4-3.009 2.167c-1.43-0.233-2.4-1.58-2.167-3.009s1.58-2.4 3.009-2.167z"></path>
	</symbol>
	<symbol id="game-cube-6" viewBox="0 0 32 32">
		<path  d="M1.822 0h28.356c1.006 0 1.822 0.816 1.822 1.822v28.356c0 1.006-0.816 1.822-1.822 1.822h-28.356c-1.006 0-1.822-0.816-1.822-1.822v-28.356c0-1.006 0.816-1.822 1.822-1.822z"></path>
		<path  d="M1.822 0.366h28.356c0.804 0 1.457 0.652 1.457 1.457v28.356c0 0.804-0.652 1.457-1.457 1.457h-28.356c-0.804 0-1.457-0.652-1.457-1.457v-28.356c0-0.804 0.652-1.457 1.457-1.457z"></path>
		<path d="M10.19 7.923c0 1.554-1.259 2.813-2.813 2.813s-2.813-1.259-2.813-2.813c0-1.554 1.259-2.813 2.813-2.813v0c1.554 0 2.813 1.259 2.813 2.813v0z"></path>
		<path fill="#222947" d="M7.964 5.37c1.41 0.331 2.284 1.743 1.953 3.153s-1.743 2.284-3.153 1.953c-1.41-0.331-2.284-1.743-1.953-3.153s1.743-2.284 3.153-1.953z"></path>
		<path d="M27.459 7.923c0 1.554-1.259 2.813-2.813 2.813s-2.813-1.259-2.813-2.813c0-1.554 1.259-2.813 2.813-2.813v0c1.554 0 2.813 1.259 2.813 2.813v0z"></path>
		<path fill="#222947" d="M25.232 5.369c1.41 0.331 2.284 1.743 1.953 3.153s-1.743 2.284-3.153 1.953c-1.41-0.331-2.284-1.743-1.953-3.153s1.743-2.284 3.153-1.953z"></path>
		<path d="M10.19 16.566c0 1.554-1.259 2.813-2.813 2.813s-2.813-1.259-2.813-2.813c0-1.554 1.259-2.813 2.813-2.813v0c1.554 0 2.813 1.259 2.813 2.813v0z"></path>
		<path fill="#222947" d="M10.002 16.566c0 1.448-1.174 2.622-2.622 2.622s-2.622-1.174-2.622-2.622c0-1.448 1.174-2.622 2.622-2.622v0c1.448 0 2.622 1.174 2.622 2.622v0z"></path>
		<path d="M27.459 16.566c0 1.554-1.259 2.813-2.813 2.813s-2.813-1.259-2.813-2.813c0-1.554 1.259-2.813 2.813-2.813v0c1.554 0 2.813 1.259 2.813 2.813v0z"></path>
		<path fill="#222947" d="M27.258 16.566c0 1.448-1.174 2.622-2.622 2.622s-2.622-1.174-2.622-2.622c0-1.448 1.174-2.622 2.622-2.622v0c1.448 0 2.622 1.174 2.622 2.622v0z"></path>
		<path d="M10.19 25.196c0 1.554-1.259 2.813-2.813 2.813s-2.813-1.259-2.813-2.813c0-1.554 1.259-2.813 2.813-2.813v0c1.554 0 2.813 1.259 2.813 2.813v0z"></path>
		<path fill="#222947" d="M9.218 23.341c1.024 1.024 1.024 2.684 0 3.709s-2.684 1.024-3.709 0c-1.024-1.024-1.024-2.684 0-3.709s2.684-1.024 3.709 0z"></path>
		<path d="M27.459 25.196c0 1.554-1.259 2.813-2.813 2.813s-2.813-1.259-2.813-2.813c0-1.554 1.259-2.813 2.813-2.813v0c1.554 0 2.813 1.259 2.813 2.813v0z"></path>
		<path fill="#222947" d="M26.488 23.34c1.024 1.024 1.024 2.684 0 3.709s-2.684 1.024-3.709 0c-1.024-1.024-1.024-2.684 0-3.709s2.684-1.024 3.709 0z"></path>
	</symbol>
	<symbol id="card-heart" viewBox="0 0 32 32">
		<path fill="#c00000" d="M16 32c0 0 16-10.997 16-21.857-0.029-5.601-3.956-10.143-8.797-10.143-2.982 0-5.638 1.742-7.203 4.371-1.594-2.63-4.221-4.371-7.232-4.371-4.841 0-8.768 4.542-8.768 10.143 0 10.86 16 21.857 16 21.857z"></path>
	</symbol>
	<symbol id="card-spade" viewBox="0 0 32 32">
		<path fill="#000" d="M16.086 0c-0.003 0.021 0.002 0.044 0 0.064 0 0 17.23 10.726 15.834 18.812-0 4.19-3.774 7.576-8.441 7.576-2.165-0-4.090-0.769-5.582-1.964-0.025 0.197-0.088 0.321-0.273 0.225 3.103 5.104 8.521 7.286 8.521 7.286h-20.299c0 0 5.429-2.187 8.532-7.297-0.165 0.086-0.269-0.009-0.353-0.182-1.477 1.172-3.376 1.932-5.513 1.932-4.666 0-8.429-3.396-8.43-7.587-1.4-8.102 15.834-18.833 15.834-18.833-0.003-0.010 0.002-0.022 0-0.032 0.021 0.001 0.047 0.030 0.068 0.032 0.030-0.004 0.077-0.031 0.103-0.032v-0z"></path>
	</symbol>
	<symbol id="card-diamond" viewBox="0 0 22 32">
		<path fill="#c00000" d="M22.4 16c-4.466-4.877-7.914-9.868-11.2-16-3.286 6.132-6.734 11.123-11.2 16 4.466 4.848 7.914 9.84 11.2 16 3.263-6.16 6.711-11.152 11.2-16z"></path>
	</symbol>
	<symbol id="card-club" viewBox="0 0 32 32">
		<path fill="#000" d="M27.977 13.558c-1.815-1.025-3.88-1.264-5.801-0.854 1.175-1.332 1.886-3.074 1.886-4.952 0-4.303-3.595-7.752-8.079-7.752-4.449 0-8.044 3.449-8.044 7.752 0 1.878 0.712 3.62 1.886 4.952-1.886-0.41-3.951-0.171-5.801 0.854-3.844 2.117-5.161 6.864-2.954 10.553s7.154 4.986 11.033 2.835c1.352-0.751 2.42-1.844 3.096-3.108-1.566 4.61-4.876 8.162-4.876 8.162h11.389c0 0-3.31-3.552-4.876-8.128 0.676 1.264 1.744 2.322 3.096 3.108 3.844 2.152 8.791 0.854 10.998-2.835 2.207-3.723 0.89-8.47-2.954-10.587z"></path>
	</symbol>
	<symbol id="video" viewBox="0 0 32 24">
		<path d="M0 0v24h32v-24h-32zM6 22h-4v-4h4v4zM6 14h-4v-4h4v4zM6 6h-4v-4h4v4zM24 22h-16v-20h16v20zM30 22h-4v-4h4v4zM30 14h-4v-4h4v4zM30 6h-4v-4h4v4zM12 6v12l8-6z"></path>
	</symbol>
	<symbol id="joker-hat" viewBox="0 0 32 22">
		<path d="M30.396 10.677c-0.513 0-0.96 0.244-1.254 0.616-1.669-1.206-5.342-3.204-8.534-0.29 0 0-3.233-4.46-1.051-8.1 0.263 0.19 0.585 0.306 0.936 0.306 0.885 0 1.605-0.718 1.605-1.605s-0.72-1.605-1.605-1.605c-0.886 0-1.607 0.718-1.607 1.605 0 0.18 0.034 0.35 0.090 0.512-2.291 0.876-6.245 3.058-6.838 7.819 0 0-3.669-4.859-9.174-1.706-0.284-0.455-0.783-0.761-1.359-0.761-0.887 0-1.606 0.719-1.606 1.605s0.719 1.605 1.606 1.605c0.886 0 1.604-0.719 1.604-1.605 0-0.050-0.011-0.097-0.015-0.147 1.92 0.15 4.997 1.847 5.844 10.863l0.096 0.736c0 0.757 3.058 1.369 6.829 1.369 3.773 0 6.83-0.614 6.83-1.369 0 0 0.245-6.185 6.004-8.157 0.044 0.846 0.736 1.523 1.596 1.523 0.888 0 1.605-0.72 1.605-1.605 0.004-0.891-0.715-1.609-1.603-1.609z"></path>
	</symbol>
	<symbol id="rect">
		<rect width="50" height="50"/>
	</symbol>
	<symbol id="lock" viewBox="0 0 29 32">
		<path d="M4.8 12.8v-3.2c0-5.302 4.298-9.6 9.6-9.6s9.6 4.298 9.6 9.6v0 3.2h1.6c1.767 0 3.2 1.433 3.2 3.2v0 12.8c0 1.767-1.433 3.2-3.2 3.2v0h-22.4c-1.767 0-3.2-1.433-3.2-3.2v0-12.8c0-1.76 1.44-3.2 3.2-3.2h1.6zM12.8 23.568v3.632h3.2v-3.632c0.963-0.564 1.6-1.593 1.6-2.771 0-1.767-1.433-3.2-3.2-3.2s-3.2 1.433-3.2 3.2c0 1.178 0.637 2.208 1.585 2.763l0.015 0.008zM9.6 9.6v3.2h9.6v-3.2c0-2.651-2.149-4.8-4.8-4.8s-4.8 2.149-4.8 4.8v0z"></path>
	</symbol>
</svg>
