<svg version="1.1"  xmlns="http://www.w3.org/2000/svg">
	<symbol id="timer" viewBox="0 0 32 32">
		<path d="M19.734 24c-0.48 0-0.8-0.16-1.12-0.48l-4.8-4.8c-0.32-0.32-0.48-0.64-0.48-1.12v-8c0-0.96 0.64-1.6 1.6-1.6s1.6 0.64 1.6 1.6v7.36l4.32 4.32c0.64 0.64 0.64 1.6 0 2.24-0.32 0.32-0.64 0.48-1.12 0.48z"></path>
		<path d="M16 32c-8.873 0-16-7.127-16-16s7.127-16 16-16c8.873 0 16 7.127 16 16s-7.127 16-16 16zM16 2.909c-7.273 0-13.091 5.818-13.091 13.091s5.818 13.091 13.091 13.091c7.273 0 13.091-5.818 13.091-13.091s-5.818-13.091-13.091-13.091z"></path>
	</symbol>
</svg>
